<?xml version="1.0" standalone="no"?>
<!DOCTYPE svg PUBLIC "-//W3C//DTD SVG 20010904//EN"
 "http://www.w3.org/TR/2001/REC-SVG-20010904/DTD/svg10.dtd">
<svg version="1.0" xmlns="http://www.w3.org/2000/svg"
 width="1280.000000pt" height="1280.000000pt" viewBox="0 0 1280.000000 1280.000000"
 preserveAspectRatio="xMidYMid meet">
<g transform="translate(0.000000,1280.000000) scale(0.100000,-0.100000)"
fill="#373737" stroke="none">
<path d="M6920 12079 c-229 -18 -352 -31 -520 -55 -58 -8 -195 -25 -305 -39
-345 -42 -579 -101 -691 -173 -86 -56 -253 -237 -300 -325 -108 -201 -161
-458 -152 -734 4 -112 9 -149 27 -196 21 -53 22 -68 16 -200 -3 -78 -2 -165 3
-194 5 -28 5 -58 0 -66 -11 -21 -103 -50 -133 -43 -13 3 -55 -3 -92 -15 -249
-76 -400 -106 -733 -150 -134 -17 -185 -26 -212 -37 -15 -6 -78 -18 -140 -27
-62 -8 -149 -20 -193 -27 -44 -6 -96 -17 -115 -24 -19 -7 -64 -15 -100 -19
-36 -3 -85 -13 -110 -21 -25 -9 -55 -12 -70 -8 -52 14 -119 10 -135 -8 -9 -11
-29 -18 -49 -18 -19 0 -37 -4 -40 -9 -9 -15 -18 -204 -31 -651 -3 -107 -8
-249 -10 -315 -3 -66 -7 -214 -10 -330 -2 -115 -7 -295 -11 -400 -4 -104 -8
-237 -9 -295 -1 -58 -5 -206 -9 -330 -4 -124 -9 -331 -12 -460 -3 -129 -8
-325 -11 -435 -2 -110 -6 -274 -8 -365 -2 -91 -8 -295 -15 -455 -6 -159 -13
-342 -15 -405 -2 -92 -16 -2137 -17 -2470 0 -47 5 -200 11 -340 6 -140 11
-265 11 -277 0 -30 -34 -63 -65 -63 -28 0 -55 -42 -55 -84 0 -14 -5 -37 -10
-52 -9 -23 -7 -31 12 -52 13 -13 38 -31 56 -39 31 -13 60 -36 130 -104 15 -14
37 -31 50 -38 12 -7 100 -71 195 -143 175 -132 273 -216 379 -323 32 -33 102
-103 154 -156 53 -53 104 -108 114 -124 10 -15 52 -63 94 -105 42 -43 76 -82
76 -88 0 -6 20 -30 44 -55 66 -68 130 -155 165 -224 48 -97 86 -97 289 -3 70
33 133 60 139 60 6 0 87 38 181 85 93 46 196 94 228 106 33 12 320 150 639
307 319 157 679 334 800 393 121 59 364 183 540 274 176 92 482 248 680 347
198 99 396 200 441 224 44 24 140 70 212 103 136 61 501 255 697 369 161 95
544 300 583 313 47 16 59 46 44 118 -7 31 -12 74 -12 95 0 22 -8 48 -21 65
-11 15 -29 67 -40 115 -17 79 -20 139 -24 584 -2 273 -9 670 -15 882 -6 212
-8 466 -5 565 9 223 9 197 1 340 -4 66 -8 370 -10 675 -1 305 -5 661 -9 790
-4 129 -9 438 -12 685 -3 248 -10 522 -15 610 -6 88 -9 167 -8 175 1 8 -1 68
-6 133 -11 155 -16 257 -21 397 -6 142 -10 207 -19 291 -10 90 -18 302 -20
499 -1 152 -28 476 -42 513 -9 26 -53 35 -98 21 -110 -34 -125 -37 -139 -25
-8 6 -12 22 -10 35 4 17 -3 29 -24 44 -28 20 -29 20 -108 1 -44 -10 -136 -25
-205 -34 -69 -9 -183 -25 -255 -36 -278 -43 -554 -70 -750 -73 l-60 -1 1 35
c1 19 14 69 29 110 26 68 29 87 28 200 0 139 -11 226 -53 410 -29 127 -63 233
-84 259 -7 9 -11 62 -11 140 0 118 -2 130 -28 183 -36 74 -122 161 -179 181
-64 23 -169 25 -408 6z m391 -145 c35 -18 79 -71 79 -95 0 -25 -28 -25 -54 0
-12 11 -44 31 -73 46 -57 28 -65 36 -55 51 17 26 51 25 103 -2z m-126 -164
c82 -31 205 -175 205 -239 0 -45 -58 -250 -99 -348 -26 -63 -90 -171 -134
-226 -8 -10 -26 -19 -38 -21 -13 -1 -31 -5 -39 -9 -16 -6 -136 -22 -240 -32
-67 -6 -95 -11 -265 -46 -125 -25 -310 -56 -500 -84 -60 -8 -139 -21 -175 -27
-36 -6 -92 -12 -125 -13 -33 -1 -99 -11 -147 -23 -48 -12 -116 -24 -150 -27
-35 -3 -88 -10 -119 -15 -31 -6 -63 -8 -72 -4 -30 11 -105 431 -93 520 15 113
99 252 183 300 77 46 199 84 297 94 50 5 127 18 171 29 159 40 564 111 633
111 27 0 92 9 143 19 52 11 121 22 154 26 33 3 101 12 150 20 146 24 187 23
260 -5z m304 -542 c5 -18 20 -86 32 -152 23 -127 23 -280 0 -324 -13 -25 -51
-46 -101 -57 -19 -4 -53 -15 -75 -25 -22 -10 -59 -24 -82 -30 -62 -19 -73 -6
-73 82 0 64 3 73 33 108 52 61 124 190 163 291 55 146 82 173 103 107z"/>
</g>
</svg>
